<?xml version="1.0" encoding="UTF-8" standalone="no"?>
<svg
   viewBox="0 0 947 947"
   role="img"
   aria-label="Disk usage gauge"
   version="1.1"
   id="svg9"
   sodipodi:docname="test.svg"
   inkscape:version="1.4.3 (0d15f75, 2025-12-25)"
   width="947"
   height="947"
   xmlns:inkscape="http://www.inkscape.org/namespaces/inkscape"
   xmlns:sodipodi="http://sodipodi.sourceforge.net/DTD/sodipodi-0.dtd"
   xmlns="http://www.w3.org/2000/svg"
   xmlns:svg="http://www.w3.org/2000/svg">
  <defs
     id="defs9" />
  <sodipodi:namedview
     id="namedview9"
     pagecolor="#ffffff"
     bordercolor="#000000"
     borderopacity="0.25"
     inkscape:showpageshadow="2"
     inkscape:pageopacity="0.0"
     inkscape:pagecheckerboard="0"
     inkscape:deskcolor="#d1d1d1"
     inkscape:zoom="0.89648241"
     inkscape:cx="312.88958"
     inkscape:cy="424.9944"
     inkscape:window-width="2560"
     inkscape:window-height="1305"
     inkscape:window-x="1512"
     inkscape:window-y="30"
     inkscape:window-maximized="1"
     inkscape:current-layer="svg9" />
  <!-- Disk body -->
  <!-- Front details -->
  <!-- Gauge plate -->
  <!-- Gauge ring segments (flat, no gradients) -->
  <!-- Inner cutout to suggest a gauge window -->
  <!-- Needle -->
  <path
     id="rect1"
     style="fill:#d5dbe6;stroke-width:1.85"
     inkscape:label="disk"
     d="m 155.3,515.30859 h 636.4 c 28.6972,0 51.8,23.1028 51.8,51.8 v 192.4 c 0,28.6972 -23.1028,51.8 -51.8,51.8 H 155.3 c -28.6972,0 -51.8,-23.1028 -51.8,-51.8 v -192.4 c 0,-28.6972 23.1028,-51.8 51.8,-51.8 z" />
  <path
     id="rect3"
     style="fill:#4a5a74;stroke-width:1.85"
     inkscape:label="disk-cutout"
     d="m 210.8,644.80859 h 185 c 10.249,0 18.5,8.251 18.5,18.5 v 25.90001 c 0,10.249 -8.251,18.5 -18.5,18.5 h -185 c -10.249,0 -18.5,-8.251 -18.5,-18.5 v -25.90001 c 0,-10.249 8.251,-18.5 18.5,-18.5 z" />
  <path
     id="circle3"
     style="fill:#43d36c;stroke-width:1.85"
     inkscape:label="disk-light-left"
     d="m 710.30001,676.25861 a 29.6,29.6 0 0 1 -29.6,29.6 29.6,29.6 0 0 1 -29.6,-29.6 29.6,29.6 0 0 1 29.6,-29.6 29.6,29.6 0 0 1 29.6,29.6 z" />
  <path
     id="circle4"
     style="fill:#ffa928;stroke-width:1.85"
     inkscape:label="disk-light-right"
     d="m 799.1,676.25861 a 29.6,29.6 0 0 1 -29.6,29.6 29.6,29.6 0 0 1 -29.6,-29.6 29.6,29.6 0 0 1 29.6,-29.6 29.6,29.6 0 0 1 29.6,29.6 z" />
  <path
     d="m 132.65545,455.08677 a 338.10985,319.45558 0 0 1 676.21969,0 v 85.18811 a 58.605704,55.372291 0 0 1 -58.6057,55.3723 H 191.26115 a 58.605704,55.372291 0 0 1 -58.6057,-55.3723 z"
     fill="#f7f9fd"
     id="path4"
     style="stroke-width:2.19101"
     inkscape:label="gauge-background" />
  <path
     d="M 196,478.30861 A 277.5,277.5 0 0 1 334.75,237.98622"
     stroke="#66d83b"
     id="path5"
     style="fill:none;stroke-width:81.4;stroke-linecap:butt"
     inkscape:label="gauge-green" />
  <path
     d="m 334.75,237.98622 a 277.5,277.5 0 0 1 277.5,0"
     stroke="#ffc533"
     id="path6"
     style="fill:none;stroke-width:81.4;stroke-linecap:butt"
     inkscape:label="gauge-yellow" />
  <path
     d="M 612.25,237.98622 A 277.5,277.5 0 0 1 751,478.30861"
     stroke="#f2484b"
     id="path7"
     style="fill:none;stroke-width:81.4;stroke-linecap:butt"
     inkscape:label="gauge-red" />
  <path
     d="m 325.5,515.30861 a 148,148 0 0 1 296,0 v 55.5 h -296 z"
     fill="#eef2f8"
     id="path9"
     style="stroke-width:1.85"
     inkscape:label="gauge-cutout" />
  <path
     id="line9"
     inkscape:label="needle"
     style="stroke:#e7ecf6;stroke-width:33.3;stroke-linecap:round"
     d="m 495.70001,496.80862 192.39997,-148" />
  <path
     id="circle9"
     style="fill:#e7ecf6;stroke-width:1.85"
     inkscape:label="needle-base"
     d="m 506.8,515.30859 a 33.299999,33.299999 0 0 1 -33.3,33.3 33.299999,33.299999 0 0 1 -33.3,-33.3 33.299999,33.299999 0 0 1 33.3,-33.3 33.299999,33.299999 0 0 1 33.3,33.3 z" />
</svg>
